<?xml version="1.0" encoding="UTF-8"?>
<svg xmlns="http://www.w3.org/2000/svg" viewBox="0 0 434.97 113.48">
  <defs>
    <style>
      .cls-1 {
        fill: #040000;
      }

      .cls-2 {
        fill: #ea5a84;
      }

      .cls-3 {
        fill: #efefef;
      }

      .cls-4 {
        fill: #e38e3e;
      }

      .cls-5 {
        fill: #36322f;
      }

      .cls-6 {
        fill: #272522;
      }

      .cls-6, .cls-7, .cls-8, .cls-9 {
        stroke-miterlimit: 10;
      }

      .cls-6, .cls-8, .cls-9 {
        stroke-width: .5px;
      }

      .cls-6, .cls-9 {
        stroke: #231815;
      }

      .cls-7, .cls-8 {
        stroke: #3e3a39;
      }

      .cls-7, .cls-8, .cls-9 {
        fill: none;
      }
    </style>
  </defs>
  <g id="_레이어_1" data-name="레이어 1">
    <path class="cls-5" d="m1.57,43.17h203.13c10.38,0,18.8,8.42,18.8,18.8v6.54c0,11.16-9.06,20.23-20.23,20.23H1.57C.7,88.74,0,88.04,0,87.17v-42.44C0,43.87.7,43.17,1.57,43.17Z" transform="translate(223.49 131.91) rotate(-180)"/>
    <g>
      <g>
        <path class="cls-5" d="m231.26,20.06c-4.16,15.66,11.92,30.76,26.69,30.76s31.63-14.12,26.79-30.76C280.96,7.02,272.77,0,258,0c-19.08,0-23.9,9.35-26.74,20.06Z"/>
        <path class="cls-5" d="m254.62,28.08c0,5.35,12.56,15.69,28.06,15.69s28.64-10.37,28.06-15.69c-.77-7.13-10.99-4.28-25.16-11.74-12.23-6.44-30.97,6.39-30.97,11.74Z"/>
      </g>
      <g>
        <path class="cls-4" d="m266.33,35.22c-2.22,2.57-1.44,11.96,10.48,10.67,10.32-1.11,26.65-5.26,27.25-10.18.71-5.84-7.94-5.01-21.21-5.15-10.04-.11-3.81-10.04-16.52,4.65Z"/>
        <path class="cls-4" d="m268.52,49.21c14.56-7.32,6.07-14.68,2.42-16.17-3.39-1.38-9.11,6.83-12.3,15.05-1.98,5.1-1.95,8.77-1.95,16.84,0,5.28,3.52-11.55,11.83-15.73Z"/>
      </g>
      <path class="cls-1" d="m300.62,26.1c-.04,2.51.93,9.71,2.93,10.6.46.2.98.07,1.55-.53,1.65-1.74,6.57-3.98,6.38-7.1-.19-3-2.59-4.74-5.59-5.89-6.55-2.52-5.21-.56-5.26,2.93Z"/>
      <path class="cls-5" d="m205.75,46.69c-15.1.72-10.11,50.98,26.78,40.74,21.12-5.86,26.78-17.19,26.78-33.55,0-15.11-11.63-32.66-24.54-22.75-6.73,5.17-4.19,14.37-29.03,15.56Z"/>
      <path class="cls-1" d="m268.35,15c0,2.02.32,3.66,1.89,3.66s1.82-1.64,1.82-3.66c0-2.81-.25-3.66-1.82-3.66s-1.89,1.64-1.89,3.66Z"/>
      <path class="cls-4" d="m265.69,9.22c-.31.74.76,2.04,2.98,1.46,1.45-.38,2.69-.71,2.42-1.47-.35-.98-1.26-1.34-2.42-1.45-1.64-.16-2.36-.02-2.98,1.46Z"/>
      <path class="cls-6" d="m222.98,30.72c-9.15,13.07,22.12,33.54,30.03,33.54,7.91,0,8.36-17.18,1.43-29.16-11.95-20.66,7.78-41.71-12.76-31.44-7.16,3.58-8.87,13.03-18.7,27.06Z"/>
      <path class="cls-9" d="m304.59,35.87c-5.57,4.09-20.47,6.84-27.24.74"/>
    </g>
    <path class="cls-2" d="m297.99,42.6c1.76,2.56,3.43,3.59,4.73,2.57s-.08-3.14-.02-6.25c.04-1.85-.76-1.28-3.02-.28-1.74.77-4.4.03-1.7,3.97Z"/>
  </g>
  <g id="_2" data-name="2">
    <g id="_6" data-name="6">
      <path class="cls-7" d="m386.93,32.64c13.42-18.49,26.77-25.23,48-23.32"/>
    </g>
    <g>
      <rect class="cls-3" x="375.05" y="28" width="26.53" height="8.76" rx="3.6" ry="3.6" transform="translate(675.06 296.24) rotate(-142.15)"/>
      <path class="cls-3" d="m368.24,22.33c1.94-2.5,4.67-3.62,8.03-1.01,2.5,1.94,7.61,13.56,4.74,10.93-3.54-3.24-7.84,1.22-11.76-1.89-2.48-1.96-2.95-5.54-1.01-8.03Z"/>
      <path class="cls-3" d="m403.62,49.82c1.94-2.5,2.35-5.42-1.01-8.03-2.5-1.94-15.02-4.03-11.76-1.89,4.01,2.63.75,7.9,4.74,10.93,2.51,1.92,6.09,1.49,8.03-1.01Z"/>
      <path class="cls-3" d="m408.99,42.9c-1.94,2.5-4.67,3.62-8.03,1.01-2.5-1.94-7.61-13.56-4.74-10.93,3.54,3.24,7.84-1.22,11.76,1.89,2.48,1.96,2.95,5.54,1.01,8.03Z"/>
      <path class="cls-3" d="m373.62,15.41c-1.94,2.5-2.35,5.42,1.01,8.03,2.5,1.94,15.02,4.03,11.76,1.89-4.01-2.63-.75-7.9-4.74-10.93-2.51-1.92-6.09-1.49-8.03,1.01Z"/>
    </g>
  </g>
  <g id="_3" data-name="3">
    <line class="cls-8" x1="191.82" y1="6.38" x2="218.44" y2="6.38"/>
    <line class="cls-8" x1="181.4" y1="12.04" x2="209.79" y2="12.04"/>
    <line class="cls-8" x1="171.91" y1="18.34" x2="203.77" y2="18.34"/>
  </g>
  <g id="_4" data-name="4">
    <g>
      <path class="cls-5" d="m225.45,88.81c.78,14.61,5.25,19.68,8.83,17.01,4.88-3.63,6.04-4.51,7.12-20.77.66-9.96-1.36-17.85-5.37-18.99-4.28-1.21-11.25,10.22-10.58,22.74Z"/>
      <path class="cls-4" d="m228.08,103.03c.31,9.51,0,10.95,5.6,10.32,2.67-.3,17.11,2.51,5.53-9.6-2.55-2.66,2.77-1.93-5.97-2.06-7.84-.12-5.26-1.91-5.16,1.35Z"/>
    </g>
    <g>
      <path class="cls-5" d="m210.13,83.82c.94,9.05,4.51,14.03,7.43,12.36,3.99-2.27,5.19-6.49,5.81-12.99.6-6.23-3.33-19.86-6.6-20.57-3.5-.76-7.46,13.38-6.65,21.2Z"/>
      <path class="cls-4" d="m212.49,93.75c.25,7.92,0,9.11,4.58,8.59,2.18-.25,13.7,2.36,4.52-7.99-1.79-2.02,2.23-2.41-4.88-1.72-6.31.61-4.3-1.59-4.22,1.12Z"/>
    </g>
  </g>
</svg>