<?xml version="1.0" encoding="UTF-8"?>
<svg id="_레이어_1" data-name="레이어 1" xmlns="http://www.w3.org/2000/svg" viewBox="0 0 844 150">
  <defs>
    <style>
      .cls-1 {
        fill: #040000;
      }

      .cls-2 {
        fill: #ea5a84;
      }

      .cls-3 {
        fill: #e38e3e;
      }

      .cls-4 {
        fill: #e08c43;
      }

      .cls-5 {
        fill: #4b4846;
      }

      .cls-6 {
        fill: #403f3e;
      }

      .cls-6, .cls-7 {
        stroke: #231815;
        stroke-miterlimit: 10;
        stroke-width: .5px;
      }

      .cls-7 {
        fill: none;
      }
    </style>
  </defs>
  <g>
    <path class="cls-5" d="m496.07,113.21c6.33,9.27,13.12,12.58,15.31,9.06,3-4.8,1.83-10.09-1.31-17.51-3-7.11-7.76-11.47-11.72-10.32-4.24,1.23-7.75,10.76-2.28,18.77Z"/>
    <path class="cls-4" d="m504.47,122.6c4.92,8.45,5.34,9.89,10,6.64,2.22-1.55,16.25-5.47.22-11.32-3.12-1.14,1.01-3.92-6.3.99-6.49,4.36-5.6.8-3.92,3.69Z"/>
  </g>
  <g>
    <path class="cls-5" d="m514.24,113.89c11.06,7.72,20.15,8.5,21.19,3.54,1.41-6.75-2.12-12.22-8.78-19.25-6.38-6.73-13.6-9.58-17.63-6.55-4.31,3.25-4.34,15.58,5.22,22.25Z"/>
    <path class="cls-4" d="m527.7,120.84c9.11,7.41,10.19,8.85,14.14,3.13,1.88-2.73,16.2-13.32-4.47-12.91-4.03.08-.48-4.88-6.75,3.89-5.56,7.78-6.03,3.36-2.92,5.89Z"/>
  </g>
  <path class="cls-5" d="m373.15,58.25h124.67c10.38,0,18.8,8.42,18.8,18.8v17.18c0,11.16-9.06,20.23-20.23,20.23h-123.25c-.86,0-1.57-.7-1.57-1.57v-53.08c0-.86.7-1.57,1.57-1.57Z" transform="translate(888.21 172.72) rotate(-180)"/>
  <g>
    <g>
      <path class="cls-5" d="m522.81,29.74c-5.13,19.32,14.71,37.95,32.93,37.95,18.22,0,39.01-17.41,33.05-37.95-4.67-16.08-14.77-24.74-32.99-24.74-23.54,0-29.48,11.54-32.99,24.74Z"/>
      <path class="cls-5" d="m551.63,39.64c0,6.6,15.5,19.35,34.62,19.35,19.12,0,35.33-12.79,34.62-19.35-.95-8.8-13.56-5.28-31.04-14.49-15.09-7.95-38.2,7.89-38.2,14.49Z"/>
    </g>
    <g>
      <path class="cls-4" d="m566.08,48.45c-2.74,3.17-1.78,14.75,12.92,13.17,12.73-1.37,32.88-6.49,33.62-12.56.88-7.2-9.8-6.18-26.16-6.35-12.39-.13-4.71-12.39-20.38,5.74Z"/>
      <path class="cls-4" d="m568.78,65.71c17.96-9.03,7.49-18.11,2.99-19.94-4.18-1.7-11.23,8.42-15.18,18.57-2.44,6.29-2.4,10.82-2.4,20.77,0,6.51,4.34-14.25,14.59-19.4Z"/>
    </g>
    <path class="cls-1" d="m608.37,37.19c-.04,3.1,1.15,11.98,3.61,13.07.57.25,1.2.09,1.91-.66,2.03-2.15,8.11-4.91,7.87-8.76-.23-3.7-3.19-5.85-6.9-7.27-8.08-3.1-6.43-.68-6.49,3.62Z"/>
    <path class="cls-5" d="m491.35,62.6c-18.62.89-12.47,62.88,33.04,50.26,26.05-7.23,33.03-21.21,33.03-41.39,0-18.64-14.35-40.29-30.27-28.06-8.3,6.38-5.16,17.72-35.81,19.19Z"/>
    <path class="cls-1" d="m568.57,23.5c0,2.49.4,4.51,2.33,4.51s2.24-2.02,2.24-4.51c0-3.47-.31-4.51-2.24-4.51s-2.33,2.02-2.33,4.51Z"/>
    <path class="cls-3" d="m565.28,16.37c-.38.91.93,2.52,3.68,1.8,1.78-.47,3.32-.88,2.99-1.81-.43-1.21-1.56-1.65-2.99-1.79-2.02-.2-2.91-.03-3.68,1.8Z"/>
    <path class="cls-7" d="m613.27,49.24c-6.87,5.04-25.26,8.44-33.61.91"/>
  </g>
  <path class="cls-2" d="m605.84,58.73c3.09,2.27,5.45,2.79,6.55,1.07s-1.37-3.63-2.56-7.27c-.7-2.17-1.41-1.18-3.63.89-1.72,1.6-5.11,1.82-.37,5.31Z"/>
  <path class="cls-6" d="m512.6,42.9c-11.29,16.12,27.28,41.37,37.04,41.37,9.76,0,10.31-21.19,1.76-35.97-14.74-25.48,9.6-51.46-15.74-38.78-8.83,4.42-10.95,16.07-23.06,33.38Z"/>
</svg>