<?xml version="1.0" encoding="UTF-8"?>
<svg xmlns="http://www.w3.org/2000/svg" viewBox="0 0 844 150">
  <defs>
    <style>
      .cls-1 {
        fill: #e08b44;
      }

      .cls-2 {
        fill: #4b4846;
      }
    </style>
  </defs>
  <g id="_몸통" data-name="몸통">
    <path class="cls-2" d="m372.39,59.23h124.67c10.38,0,18.8,8.42,18.8,18.8v17.18c0,11.16-9.06,20.23-20.23,20.23h-123.25c-.86,0-1.57-.7-1.57-1.57v-53.08c0-.86.7-1.57,1.57-1.57Z" transform="translate(886.68 174.66) rotate(-180)"/>
    <path class="cls-2" d="m300.84,63.29c-2.12.01,6.41,26.7,36.04,24.55,29.47-2.14,55.8-24.14,55.8-25.28s-29.02,17.02-53.8,20.01c-29.5,3.56-35.83-19.29-38.04-19.28Z"/>
  </g>
  <g id="_다리" data-name="다리">
    <g>
      <path class="cls-2" d="m389.48,118.35c1.42,13.41,6.8,20.79,11.22,18.32,6.02-3.36,7.84-9.62,8.78-19.25s-1.68-16.55-6.62-17.6c-5.28-1.12-14.61,6.95-13.38,18.53Z"/>
      <path class="cls-1" d="m393.05,133.07c.38,11.73,0,13.5,6.91,12.72,3.29-.37,20.68,3.49,6.82-11.84-2.7-2.99,3.37-3.57-7.36-2.55-9.52.91-6.49-2.35-6.36,1.66Z"/>
    </g>
    <g>
      <path class="cls-2" d="m371.64,109.45c.04,11.22,4.83,17.22,8.44,15.17,4.92-2.8,6.4-8.01,7.17-16.03.74-7.68-1.37-13.78-5.41-14.65-4.32-.94-10.29-10.18-10.2,15.51Z"/>
      <path class="cls-1" d="m373.83,121.62c.31,9.77,0,11.24,5.64,10.59,2.69-.31,16.9,2.91,5.57-9.86-2.21-2.49,2.75-2.97-6.01-2.12-7.78.75-5.31-1.96-5.2,1.38Z"/>
    </g>
  </g>
</svg>