<?xml version="1.0" encoding="UTF-8"?>
<svg xmlns="http://www.w3.org/2000/svg" viewBox="0 0 844 150">
  <defs>
    <style>
      .cls-1 {
        fill: #040000;
      }

      .cls-2 {
        fill: #ea5a84;
      }

      .cls-3 {
        fill: #e38e3e;
      }

      .cls-4 {
        fill: #36322f;
      }

      .cls-5 {
        fill: #272522;
      }

      .cls-5, .cls-6 {
        stroke: #231815;
        stroke-miterlimit: 10;
        stroke-width: .5px;
      }

      .cls-6 {
        fill: none;
      }
    </style>
  </defs>
  <g id="_몸통" data-name="몸통">
    <path class="cls-4" d="m373.57,58.25h124.67c10.38,0,18.8,8.42,18.8,18.8v17.18c0,11.16-9.06,20.23-20.23,20.23h-123.25c-.86,0-1.57-.7-1.57-1.57v-53.08c0-.86.7-1.57,1.57-1.57Z" transform="translate(889.05 172.72) rotate(-180)"/>
  </g>
  <g id="_앞다리" data-name="앞다리">
    <g>
      <path class="cls-4" d="m515.39,117.38c1.42,13.41,6.8,20.79,11.22,18.32,6.02-3.36,7.84-9.62,8.78-19.25.9-9.23-1.68-16.55-6.62-17.6-5.28-1.12-14.61,6.95-13.38,18.53Z"/>
      <path class="cls-3" d="m518.97,132.1c.38,11.73,0,13.5,6.91,12.72,3.29-.37,20.68,3.49,6.82-11.84-2.7-2.99,3.37-3.57-7.36-2.55-9.52.91-6.49-2.35-6.36,1.66Z"/>
    </g>
    <g>
      <path class="cls-4" d="m496.82,108.39c1.16,11.16,5.56,17.31,9.17,15.25,4.92-2.8,6.4-8.01,7.17-16.03.74-7.68-1.37-13.78-5.41-14.65-4.32-.94-11.94,5.78-10.93,15.43Z"/>
      <path class="cls-3" d="m499.75,120.65c.31,9.77,0,11.24,5.64,10.59,2.69-.31,16.9,2.91,5.57-9.86-2.21-2.49,2.75-2.97-6.01-2.12-7.78.75-5.31-1.96-5.2,1.38Z"/>
    </g>
  </g>
  <g id="_뒷다리" data-name="뒷다리">
    <g>
      <path class="cls-4" d="m390.66,117.38c1.42,13.41,6.8,20.79,11.22,18.32,6.02-3.36,7.84-9.62,8.78-19.25s-1.68-16.55-6.62-17.6c-5.28-1.12-14.61,6.95-13.38,18.53Z"/>
      <path class="cls-3" d="m394.24,132.1c.38,11.73,0,13.5,6.91,12.72,3.29-.37,20.68,3.49,6.82-11.84-2.7-2.99,3.37-3.57-7.36-2.55-9.52.91-6.49-2.35-6.36,1.66Z"/>
    </g>
    <g>
      <path class="cls-4" d="m372.82,108.48c.04,11.22,4.83,17.22,8.44,15.17,4.92-2.8,6.4-8.01,7.17-16.03.74-7.68-1.37-13.78-5.41-14.65-4.32-.94-10.29-10.18-10.2,15.51Z"/>
      <path class="cls-3" d="m375.02,120.65c.31,9.77,0,11.24,5.64,10.59,2.69-.31,16.9,2.91,5.57-9.86-2.21-2.49,2.75-2.97-6.01-2.12-7.78.75-5.31-1.96-5.2,1.38Z"/>
    </g>
  </g>
  <g id="_꼬리" data-name="꼬리">
    <path class="cls-4" d="m302.03,62.32c-2.12.01,6.41,26.7,36.04,24.55,29.47-2.14,55.8-24.14,55.8-25.28s-29.02,17.02-53.8,20.01c-29.5,3.56-35.83-19.29-38.04-19.28Z"/>
  </g>
  <g id="_머리" data-name="머리">
    <g>
      <g>
        <path class="cls-4" d="m522.89,29.74c-5.13,19.32,14.71,37.95,32.93,37.95,18.22,0,39.01-17.41,33.05-37.95-4.67-16.08-14.77-24.74-32.99-24.74-23.54,0-29.48,11.54-32.99,24.74Z"/>
        <path class="cls-4" d="m551.71,39.64c0,6.6,15.5,19.35,34.62,19.35s35.33-12.79,34.62-19.35c-.95-8.8-13.56-5.28-31.04-14.49-15.09-7.95-38.2,7.89-38.2,14.49Z"/>
      </g>
      <g>
        <path class="cls-3" d="m566.15,48.45c-2.74,3.17-1.78,14.75,12.92,13.17,12.73-1.37,32.88-6.49,33.62-12.56.88-7.2-9.8-6.18-26.16-6.35-12.39-.13-4.71-12.39-20.38,5.74Z"/>
        <path class="cls-3" d="m568.86,65.71c17.96-9.03,7.49-18.11,2.99-19.94-4.18-1.7-11.23,8.42-15.18,18.57-2.44,6.29-2.4,10.82-2.4,20.77,0,6.51,4.34-14.25,14.59-19.4Z"/>
      </g>
      <path class="cls-1" d="m608.45,37.19c-.04,3.1,1.15,11.98,3.61,13.07.57.25,1.2.09,1.91-.66,2.03-2.15,8.11-4.91,7.87-8.76-.23-3.7-3.19-5.85-6.9-7.27-8.08-3.1-6.43-.68-6.49,3.62Z"/>
      <path class="cls-4" d="m491.43,62.6c-18.62.89-12.47,62.88,33.04,50.26,26.05-7.23,33.03-21.21,33.03-41.39,0-18.64-14.35-40.29-30.27-28.06-8.3,6.38-5.16,17.72-35.81,19.19Z"/>
      <path class="cls-1" d="m568.65,23.5c0,2.49.4,4.51,2.33,4.51s2.24-2.02,2.24-4.51c0-3.47-.31-4.51-2.24-4.51s-2.33,2.02-2.33,4.51Z"/>
      <path class="cls-3" d="m565.36,16.37c-.38.91.93,2.52,3.68,1.8,1.78-.47,3.32-.88,2.99-1.81-.43-1.21-1.56-1.65-2.99-1.79-2.02-.2-2.91-.03-3.68,1.8Z"/>
      <path class="cls-6" d="m613.35,49.24c-6.87,5.04-25.26,8.44-33.61.91"/>
    </g>
  </g>
  <g id="_귀" data-name="귀">
    <path class="cls-5" d="m512.68,42.9c-11.29,16.12,27.28,41.37,37.04,41.37,9.76,0,10.31-21.19,1.76-35.97-14.74-25.48,9.6-51.46-15.74-38.78-8.83,4.42-10.95,16.07-23.06,33.38Z"/>
  </g>
  <g id="_혓바닥" data-name="혓바닥">
    <path class="cls-2" d="m605.21,57.54c2.17,3.16,4.23,4.42,5.84,3.17s-.1-3.88-.02-7.71c.05-2.28-.94-1.58-3.72-.35-2.15.95-5.43.04-2.1,4.89Z"/>
  </g>
</svg>