<?xml version="1.0" encoding="UTF-8"?>
<svg xmlns="http://www.w3.org/2000/svg" viewBox="0 0 415 120">
  <defs>
    <style>
      .cls-1 {
        fill: #040000;
      }

      .cls-2 {
        fill: #ea5a84;
      }

      .cls-3 {
        fill: #e38e3e;
      }

      .cls-4 {
        fill: #36322f;
      }

      .cls-5 {
        fill: #272522;
      }

      .cls-5, .cls-6 {
        stroke: #231815;
        stroke-miterlimit: 10;
        stroke-width: .5px;
      }

      .cls-6 {
        fill: none;
      }
    </style>
  </defs>
  <g id="_2" data-name="2">
    <path class="cls-4" d="m146.18,46.42h97.21c10.38,0,18.8,8.42,18.8,18.8v6.54c0,11.16-9.06,20.23-20.23,20.23h-95.79c-.86,0-1.57-.7-1.57-1.57v-42.44c0-.86.7-1.57,1.57-1.57Z" transform="translate(406.8 138.42) rotate(-180)"/>
  </g>
  <g id="_6" data-name="6">
    <path class="cls-4" d="m87.88,49.72c-1.72.01,5.19,21.65,29.22,19.9,23.89-1.73,45.23-19.57,45.23-20.5s-23.53,13.8-43.61,16.22c-23.91,2.89-29.05-15.64-30.84-15.63Z"/>
  </g>
  <g id="_5" data-name="5">
    <g>
      <path class="cls-4" d="m159.74,94.35c1.15,10.87,5.51,16.85,9.1,14.85,4.88-2.73,6.35-7.8,7.12-15.61s-1.36-13.42-5.37-14.27c-4.28-.91-11.84,5.63-10.84,15.03Z"/>
      <path class="cls-3" d="m162.63,106.29c.31,9.51,0,10.95,5.6,10.32,2.67-.3,16.76,2.83,5.53-9.6-2.19-2.42,2.73-2.89-5.97-2.06-7.72.73-5.26-1.91-5.16,1.35Z"/>
    </g>
    <g>
      <path class="cls-4" d="m145.27,87.14c.03,9.1,3.91,13.96,6.84,12.3,3.99-2.27,5.19-6.49,5.81-12.99.6-6.23-1.11-11.17-4.38-11.88-3.5-.76-8.35-8.25-8.27,12.58Z"/>
      <path class="cls-3" d="m147.05,97.01c.25,7.92,0,9.11,4.58,8.59,2.18-.25,13.7,2.36,4.52-7.99-1.79-2.02,2.23-2.41-4.88-1.72-6.31.61-4.3-1.59-4.22,1.12Z"/>
    </g>
  </g>
  <g id="_4" data-name="4">
    <g>
      <path class="cls-4" d="m260.85,94.35c1.15,10.87,5.51,16.85,9.1,14.85,4.88-2.73,6.35-7.8,7.12-15.61.73-7.48-1.36-13.42-5.37-14.27-4.28-.91-11.84,5.63-10.84,15.03Z"/>
      <path class="cls-3" d="m263.75,106.29c.31,9.51,0,10.95,5.6,10.32,2.67-.3,16.76,2.83,5.53-9.6-2.19-2.42,2.73-2.89-5.97-2.06-7.72.73-5.26-1.91-5.16,1.35Z"/>
    </g>
    <g>
      <path class="cls-4" d="m245.8,87.07c.94,9.05,4.51,14.03,7.43,12.36,3.99-2.27,5.19-6.49,5.81-12.99.6-6.23-1.11-11.17-4.38-11.88-3.5-.76-9.68,4.69-8.86,12.51Z"/>
      <path class="cls-3" d="m248.17,97.01c.25,7.92,0,9.11,4.58,8.59,2.18-.25,13.7,2.36,4.52-7.99-1.79-2.02,2.23-2.41-4.88-1.72-6.31.61-4.3-1.59-4.22,1.12Z"/>
    </g>
  </g>
  <g id="_3" data-name="3">
    <g>
      <g>
        <path class="cls-4" d="m266.93,23.31c-4.16,15.66,11.92,30.76,26.69,30.76s31.63-14.12,26.79-30.76c-3.78-13.03-11.97-20.06-26.74-20.06-19.08,0-23.9,9.35-26.74,20.06Z"/>
        <path class="cls-4" d="m290.29,31.33c0,5.35,12.56,15.69,28.06,15.69s28.64-10.37,28.06-15.69c-.77-7.13-10.99-4.28-25.16-11.74-12.23-6.44-30.97,6.39-30.97,11.74Z"/>
      </g>
      <g>
        <path class="cls-3" d="m302,38.48c-2.22,2.57-1.44,11.96,10.48,10.67,10.32-1.11,26.65-5.26,27.25-10.18.71-5.84-7.94-5.01-21.21-5.15-10.04-.11-3.81-10.04-16.52,4.65Z"/>
        <path class="cls-3" d="m304.19,52.47c14.56-7.32,6.07-14.68,2.42-16.17-3.39-1.38-9.11,6.83-12.3,15.05-1.98,5.1-1.95,8.77-1.95,16.84,0,5.28,3.52-11.55,11.83-15.73Z"/>
      </g>
      <path class="cls-1" d="m336.29,29.35c-.04,2.51.93,9.71,2.93,10.6.46.2.98.07,1.55-.53,1.65-1.74,6.57-3.98,6.38-7.1-.19-3-2.59-4.74-5.59-5.89-6.55-2.52-5.21-.56-5.26,2.93Z"/>
      <path class="cls-4" d="m241.42,49.94c-15.1.72-10.11,50.98,26.78,40.74,21.12-5.86,26.78-17.19,26.78-33.55,0-15.11-11.63-32.66-24.54-22.75-6.73,5.17-4.19,14.37-29.03,15.56Z"/>
      <path class="cls-1" d="m304.02,18.25c0,2.02.32,3.66,1.89,3.66s1.82-1.64,1.82-3.66c0-2.81-.25-3.66-1.82-3.66s-1.89,1.64-1.89,3.66Z"/>
      <path class="cls-3" d="m301.36,12.47c-.31.74.76,2.04,2.98,1.46,1.45-.38,2.69-.71,2.42-1.47-.35-.98-1.26-1.34-2.42-1.45-1.64-.16-2.36-.02-2.98,1.46Z"/>
      <path class="cls-5" d="m258.65,33.98c-9.15,13.07,22.12,33.54,30.03,33.54s8.36-17.18,1.43-29.16c-11.95-20.66,7.78-41.71-12.76-31.44-7.16,3.58-8.87,13.03-18.7,27.06Z"/>
      <path class="cls-6" d="m340.26,39.12c-5.57,4.09-20.47,6.84-27.24.74"/>
    </g>
  </g>
  <g id="_1" data-name="1">
    <path class="cls-2" d="m333.66,45.85c1.76,2.56,3.43,3.59,4.73,2.57s-.08-3.14-.02-6.25c.04-1.85-.76-1.28-3.02-.28-1.74.77-4.4.03-1.7,3.97Z"/>
  </g>
</svg>