<?xml version="1.0" encoding="UTF-8"?>
<svg xmlns="http://www.w3.org/2000/svg" viewBox="0 0 844 390">
  <defs>
    <style>
      .cls-1 {
        fill: #030000;
      }

      .cls-2 {
        fill: #669c5d;
      }

      .cls-3 {
        fill: #fffeff;
      }

      .cls-4 {
        fill: #6bac59;
      }

      .cls-5 {
        fill: #aad8e7;
      }

      .cls-6 {
        fill: #d86483;
      }

      .cls-7 {
        fill: #d6914e;
      }

      .cls-8 {
        fill: #36322f;
      }

      .cls-9 {
        fill: #81b978;
      }

      .cls-10 {
        fill: #75b566;
      }

      .cls-11 {
        fill: #262422;
      }

      .cls-11, .cls-12, .cls-13, .cls-14, .cls-15 {
        stroke-miterlimit: 10;
      }

      .cls-11, .cls-12, .cls-13, .cls-15 {
        stroke-width: .5px;
      }

      .cls-11, .cls-15 {
        stroke: #211815;
      }

      .cls-12 {
        fill: #4ca659;
      }

      .cls-12, .cls-13 {
        stroke: #4aa041;
      }

      .cls-13 {
        fill: #5eb05f;
      }

      .cls-14 {
        fill: #5a101a;
        stroke: #5a101a;
        stroke-width: .75px;
      }

      .cls-15 {
        fill: none;
      }
    </style>
  </defs>
  <g id="_레이어_1" data-name="레이어 1">
    <rect class="cls-5" x="0" width="844" height="390"/>
    <path class="cls-3" d="m65.28,406.91c-.88,0-1.73.13-2.54.35-1.33-2.52-3.98-4.25-7.03-4.25-1.05,0-2.05.21-2.97.58-1.36-1.1-3.09-1.76-4.98-1.76-2.03,0-3.88.77-5.28,2.02-3.77-4.71-9.27-7.98-15.54-8.84-2.42-10.77-12.04-18.81-23.53-18.81s-20.65,7.66-23.35,18.03c-3.61,1.59-6.75,4.04-9.17,7.09-2.4-2.67-5.87-4.36-9.74-4.36-5.41,0-10.06,3.28-12.05,7.97-6.33.92-11.21,6.35-11.21,12.94,0,.13.02.25.02.38.01.5.06,1,.13,1.48H74.27c.37-1.02.58-2.11.58-3.26,0-5.29-4.29-9.57-9.57-9.57Z"/>
    <path class="cls-3" d="m441,398.94c-.88,0-1.73.13-2.54.35-1.33-2.52-3.98-4.25-7.03-4.25-1.05,0-2.05.21-2.97.58-1.36-1.1-3.09-1.76-4.98-1.76-2.03,0-3.88.77-5.28,2.02-3.77-4.71-9.27-7.98-15.54-8.84-2.42-10.77-12.04-18.81-23.53-18.81s-20.65,7.66-23.35,18.03c-3.61,1.59-6.75,4.04-9.17,7.09-2.4-2.67-5.87-4.36-9.74-4.36-5.41,0-10.06,3.28-12.05,7.97-6.33.92-11.21,6.35-11.21,12.94,0,.13.02.25.02.38.01.5.06,1,.13,1.48h136.24c.37-1.02.58-2.11.58-3.26,0-5.29-4.29-9.57-9.57-9.57Z"/>
    <path class="cls-9" d="m-41.87,226.49s50.33,39.67,225.41,39.05,355.95-86.37,610.22-39.34c235.69,43.59,236.18-22.16,236.18-22.16l-50.77,175.62L-31.78,451.05l-10.1-224.56Z"/>
    <path class="cls-10" d="m-15.44,318.79s41.45-30.31,216.53-30.93,190.7.98,416.71,23.07c236.91,23.16,438.57-14.58,438.57-14.58l-50.77,175.62L-5.35,543.35l-10.1-224.56Z"/>
    <path class="cls-4" d="m-85.33,367.02s41.45-30.31,216.53-30.93,210.55-14.04,454.31,20.67c235.66,33.55,393.9,58.8,393.9,58.8l-43.7,104.64-1010.94,71.38-10.1-224.56Z"/>
    <g>
      <ellipse class="cls-2" cx="58.53" cy="261.39" rx="8.07" ry="2.05"/>
      <path class="cls-13" d="m75.03,208.56c3.74,19.69,6.84,38.12-17.93,38.05-24.54-.07-20.68-18.03-18.2-36.6,2.49-18.73,9.45-36.45,18.25-36.48,11.59-.04,13.52,12.09,17.88,35.04Z"/>
      <path class="cls-12" d="m76.84,230.61c0,8.62-6.33,15.66-19.95,15.61-17.26-.07-24.13-14.03-15.2-15.32,18.65-2.69,15.14-.97,26.28-13.14,10.09-11.02,8.86,4.23,8.86,12.85Z"/>
      <rect class="cls-14" x="55.85" y="247.6" width="5.36" height="13.79"/>
    </g>
    <g>
      <ellipse class="cls-2" cx="757.02" cy="361.1" rx="9.34" ry="2.38"/>
      <path class="cls-13" d="m776.11,299.95c4.33,22.8,7.92,44.12-20.75,44.04-28.4-.08-23.93-20.87-21.07-42.37,2.89-21.68,10.94-42.19,21.12-42.22,13.41-.05,15.65,13.99,20.7,40.55Z"/>
      <path class="cls-12" d="m778.21,325.47c0,9.98-7.32,18.13-23.09,18.07-19.98-.08-27.93-16.24-17.59-17.73,21.59-3.11,17.52-1.13,30.42-15.21,11.68-12.75,10.26,4.9,10.26,14.88Z"/>
      <rect class="cls-14" x="753.92" y="345.14" width="6.21" height="15.96"/>
    </g>
    <g>
      <ellipse class="cls-2" cx="168.05" cy="351.35" rx="7.6" ry="1.94"/>
      <path class="cls-13" d="m183.6,301.55c3.53,18.56,6.45,35.93-16.9,35.86-23.13-.06-19.49-17-17.16-34.5,2.35-17.66,8.91-34.36,17.2-34.38,10.92-.04,12.74,11.4,16.86,33.02Z"/>
      <path class="cls-12" d="m185.31,322.34c0,8.13-5.96,14.77-18.8,14.72-16.27-.06-22.74-13.23-14.33-14.44,17.58-2.53,14.27-.92,24.77-12.39,9.51-10.38,8.36,3.99,8.36,12.11Z"/>
      <rect class="cls-14" x="165.53" y="338.35" width="5.05" height="13"/>
    </g>
  </g>
  <g id="_구름" data-name="구름">
    <path class="cls-3" d="m802.98,92.59c-.88,0-1.73.13-2.54.35-1.33-2.52-3.98-4.25-7.03-4.25-1.05,0-2.05.21-2.97.58-1.36-1.1-3.09-1.76-4.98-1.76-2.03,0-3.88.77-5.28,2.02-3.77-4.71-9.27-7.98-15.54-8.84-2.42-10.77-12.04-18.81-23.53-18.81s-20.65,7.66-23.35,18.03c-3.61,1.59-6.75,4.04-9.17,7.09-2.4-2.67-5.87-4.36-9.74-4.36-5.41,0-10.06,3.28-12.05,7.97-6.33.92-11.21,6.35-11.21,12.94,0,.13.02.25.02.38.01.5.06,1,.13,1.48h136.24c.37-1.02.58-2.11.58-3.26,0-5.29-4.29-9.57-9.57-9.57Z"/>
    <path class="cls-3" d="m195.99,58.72c-.88,0-1.73.13-2.54.35-1.33-2.52-3.98-4.25-7.03-4.25-1.05,0-2.05.21-2.97.58-1.36-1.1-3.09-1.76-4.98-1.76-2.03,0-3.88.77-5.28,2.02-3.77-4.71-9.27-7.98-15.54-8.84-2.42-10.77-12.04-18.81-23.53-18.81s-20.65,7.66-23.35,18.03c-3.61,1.59-6.75,4.04-9.17,7.09-2.4-2.67-5.87-4.36-9.74-4.36-5.41,0-10.06,3.28-12.05,7.97-6.33.92-11.21,6.35-11.21,12.94,0,.13.02.25.02.38.01.5.06,1,.13,1.48h136.24c.37-1.02.58-2.11.58-3.26,0-5.29-4.29-9.57-9.57-9.57Z"/>
    <path class="cls-3" d="m461.35,151.45c-.88,0-1.73.13-2.54.35-1.33-2.52-3.98-4.25-7.03-4.25-1.05,0-2.05.21-2.97.58-1.36-1.1-3.09-1.76-4.98-1.76-2.03,0-3.88.77-5.28,2.02-3.77-4.71-9.27-7.98-15.54-8.84-2.42-10.77-12.04-18.81-23.53-18.81s-20.65,7.66-23.35,18.03c-3.61,1.59-6.75,4.04-9.17,7.09-2.4-2.67-5.87-4.36-9.74-4.36-5.41,0-10.06,3.28-12.05,7.97-6.33.92-11.21,6.35-11.21,12.94,0,.13.02.25.02.38.01.5.06,1,.13,1.48h136.24c.37-1.02.58-2.11.58-3.26,0-5.29-4.29-9.57-9.57-9.57Z"/>
    <path class="cls-8" d="m326.67,192.62h124.67c10.38,0,18.8,8.42,18.8,18.8v17.18c0,11.16-9.06,20.23-20.23,20.23h-123.25c-.86,0-1.57-.7-1.57-1.57v-53.08c0-.86.7-1.57,1.57-1.57Z" transform="translate(795.24 441.44) rotate(-180)"/>
    <g>
      <path class="cls-8" d="m468.49,251.74c1.42,13.41,6.8,20.79,11.22,18.32,6.02-3.36,7.84-9.62,8.78-19.25.9-9.23-1.68-16.55-6.62-17.6-5.28-1.12-14.61,6.95-13.38,18.53Z"/>
      <path class="cls-7" d="m472.06,266.46c.38,11.73,0,13.5,6.91,12.72,3.29-.37,20.68,3.49,6.82-11.84-2.7-2.99,3.37-3.57-7.36-2.55-9.52.91-6.49-2.35-6.36,1.66Z"/>
    </g>
    <g>
      <path class="cls-8" d="m449.92,242.76c1.16,11.16,5.56,17.31,9.17,15.25,4.92-2.8,6.4-8.01,7.17-16.03.74-7.68-1.37-13.78-5.41-14.65-4.32-.94-11.94,5.78-10.93,15.43Z"/>
      <path class="cls-7" d="m452.84,255.01c.31,9.77,0,11.24,5.64,10.59,2.69-.31,16.9,2.91,5.57-9.86-2.21-2.49,2.75-2.97-6.01-2.12-7.78.75-5.31-1.96-5.2,1.38Z"/>
    </g>
    <g>
      <path class="cls-8" d="m343.76,251.74c1.42,13.41,6.8,20.79,11.22,18.32,6.02-3.36,7.84-9.62,8.78-19.25s-1.68-16.55-6.62-17.6c-5.28-1.12-14.61,6.95-13.38,18.53Z"/>
      <path class="cls-7" d="m347.33,266.46c.38,11.73,0,13.5,6.91,12.72,3.29-.37,20.68,3.49,6.82-11.84-2.7-2.99,3.37-3.57-7.36-2.55-9.52.91-6.49-2.35-6.36,1.66Z"/>
    </g>
    <g>
      <path class="cls-8" d="m325.92,242.84c.04,11.22,4.83,17.22,8.44,15.17,4.92-2.8,6.4-8.01,7.17-16.03.74-7.68-1.37-13.78-5.41-14.65-4.32-.94-10.29-10.18-10.2,15.51Z"/>
      <path class="cls-7" d="m328.11,255.01c.31,9.77,0,11.24,5.64,10.59,2.69-.31,16.9,2.91,5.57-9.86-2.21-2.49,2.75-2.97-6.01-2.12-7.78.75-5.31-1.96-5.2,1.38Z"/>
    </g>
    <path class="cls-8" d="m255.13,196.68c-2.12.01,6.41,26.7,36.04,24.55,29.47-2.14,55.8-24.14,55.8-25.28s-29.02,17.02-53.8,20.01c-29.5,3.56-35.83-19.29-38.04-19.28Z"/>
    <g>
      <g>
        <path class="cls-8" d="m475.99,164.1c-5.13,19.32,14.71,37.95,32.93,37.95s39.01-17.41,33.05-37.95c-4.67-16.08-14.77-24.74-32.99-24.74-23.54,0-29.48,11.54-32.99,24.74Z"/>
        <path class="cls-8" d="m504.81,174c0,6.6,15.5,19.35,34.62,19.35s35.33-12.79,34.62-19.35c-.95-8.8-13.56-5.28-31.04-14.49-15.09-7.95-38.2,7.89-38.2,14.49Z"/>
      </g>
      <g>
        <path class="cls-7" d="m519.25,182.81c-2.74,3.17-1.78,14.75,12.92,13.17,12.73-1.37,32.88-6.49,33.62-12.56.88-7.2-9.8-6.18-26.16-6.35-12.39-.13-4.71-12.39-20.38,5.74Z"/>
        <path class="cls-7" d="m521.95,200.07c17.96-9.03,7.49-18.11,2.99-19.94-4.18-1.7-11.23,8.42-15.18,18.57-2.44,6.29-2.4,10.82-2.4,20.77,0,6.51,4.34-14.25,14.59-19.4Z"/>
      </g>
      <path class="cls-1" d="m561.55,171.56c-.04,3.1,1.15,11.98,3.61,13.07.57.25,1.2.09,1.91-.66,2.03-2.15,8.11-4.91,7.87-8.76-.23-3.7-3.19-5.85-6.9-7.27-8.08-3.1-6.43-.68-6.49,3.62Z"/>
      <path class="cls-8" d="m444.52,196.96c-18.62.89-12.47,62.88,33.04,50.26,26.05-7.23,33.03-21.21,33.03-41.39,0-18.64-14.35-40.29-30.27-28.06-8.3,6.38-5.16,17.72-35.81,19.19Z"/>
      <path class="cls-1" d="m521.74,157.87c0,2.49.4,4.51,2.33,4.51s2.24-2.02,2.24-4.51c0-3.47-.31-4.51-2.24-4.51s-2.33,2.02-2.33,4.51Z"/>
      <path class="cls-7" d="m518.46,150.73c-.38.91.93,2.52,3.68,1.8,1.78-.47,3.32-.88,2.99-1.81-.43-1.21-1.56-1.65-2.99-1.79-2.02-.2-2.91-.03-3.68,1.8Z"/>
      <path class="cls-15" d="m566.44,183.61c-6.87,5.04-25.26,8.44-33.61.91"/>
    </g>
    <path class="cls-11" d="m465.78,177.26c-11.29,16.12,27.28,41.37,37.04,41.37,9.76,0,10.31-21.19,1.76-35.97-14.74-25.48,9.6-51.46-15.74-38.78-8.83,4.42-10.95,16.07-23.06,33.38Z"/>
    <path class="cls-6" d="m558.31,191.91c2.17,3.16,4.23,4.42,5.84,3.17s-.1-3.88-.02-7.71c.05-2.28-.94-1.58-3.72-.35-2.15.95-5.43.04-2.1,4.89Z"/>
  </g>
</svg>